<svg id="visual" viewBox="0 0 900 450" width="900" height="450" xmlns="http://www.w3.org/2000/svg" xmlns:xlink="http://www.w3.org/1999/xlink" version="1.1"><path d="M0 394L15 390.8C30 387.7 60 381.3 90 376.7C120 372 150 369 180 371C210 373 240 380 270 383.2C300 386.3 330 385.7 360 387.5C390 389.3 420 393.7 450 395.3C480 397 510 396 540 396.7C570 397.3 600 399.7 630 399.3C660 399 690 396 720 391.8C750 387.7 780 382.3 810 377.2C840 372 870 367 885 364.5L900 362L900 451L885 451C870 451 840 451 810 451C780 451 750 451 720 451C690 451 660 451 630 451C600 451 570 451 540 451C510 451 480 451 450 451C420 451 390 451 360 451C330 451 300 451 270 451C240 451 210 451 180 451C150 451 120 451 90 451C60 451 30 451 15 451L0 451Z" fill="#f1f4f8" stroke-linecap="round" stroke-linejoin="miter"></path></svg>