<svg id="visual" viewBox="0 0 900 600" width="900" height="600" xmlns="http://www.w3.org/2000/svg" xmlns:xlink="http://www.w3.org/1999/xlink" version="1.1"><path d="M0 311L25 305.3C50 299.7 100 288.3 150 284.7C200 281 250 285 300 293.2C350 301.3 400 313.7 450 320.7C500 327.7 550 329.3 600 330.5C650 331.7 700 332.3 750 327.3C800 322.3 850 311.7 875 306.3L900 301L900 601L875 601C850 601 800 601 750 601C700 601 650 601 600 601C550 601 500 601 450 601C400 601 350 601 300 601C250 601 200 601 150 601C100 601 50 601 25 601L0 601Z" fill="#f1f4f8" stroke-linecap="round" stroke-linejoin="miter"></path></svg>